<svg width="65" height="25" viewBox="0 0 65 25" fill="none" xmlns="http://www.w3.org/2000/svg">
<path d="M9.59633 22.8809H7.77982C7.0581 22.8809 6.52599 22.6974 6.18349 22.3304C5.85321 21.9634 5.68807 21.468 5.68807 20.8442V19.8717C4.96636 19.7861 4.31804 19.5781 3.74312 19.2478C3.1682 18.9176 2.6789 18.4772 2.27523 17.9267C1.87156 17.3763 1.55963 16.7157 1.33945 15.9451C1.11927 15.1622 1.00917 14.2815 1.00917 13.3029C1.00917 12.2264 1.13761 11.2784 1.3945 10.4588C1.66361 9.62703 2.0367 8.9359 2.51376 8.38544C3.00306 7.82275 3.5841 7.40073 4.25688 7.11939C4.9419 6.82581 5.70031 6.67902 6.53211 6.67902C7.36391 6.67902 8.11621 6.82581 8.78899 7.11939C9.47401 7.40073 10.055 7.82275 10.5321 8.38544C11.0214 8.9359 11.3945 9.62703 11.6514 10.4588C11.9205 11.2784 12.055 12.2264 12.055 13.3029C12.055 15.2111 11.6575 16.7218 10.8624 17.835C10.0673 18.9359 8.99083 19.6026 7.63303 19.835V21.1561H9.59633V22.8809ZM6.53211 18.0735C7.02141 18.0735 7.46789 17.9879 7.87156 17.8166C8.28746 17.6454 8.63609 17.4007 8.91743 17.0827C9.21101 16.7524 9.43731 16.3549 9.59633 15.89C9.75535 15.4252 9.83486 14.8992 9.83486 14.312V12.2937C9.83486 11.7065 9.75535 11.1805 9.59633 10.7157C9.43731 10.2509 9.21101 9.85945 8.91743 9.54141C8.63609 9.21113 8.28746 8.96037 7.87156 8.78911C7.46789 8.61786 7.02141 8.53223 6.53211 8.53223C6.03058 8.53223 5.57798 8.61786 5.17431 8.78911C4.77064 8.96037 4.42202 9.21113 4.12844 9.54141C3.84709 9.85945 3.62691 10.2509 3.46789 10.7157C3.30887 11.1805 3.22936 11.7065 3.22936 12.2937V14.312C3.22936 14.8992 3.30887 15.4252 3.46789 15.89C3.62691 16.3549 3.84709 16.7524 4.12844 17.0827C4.42202 17.4007 4.77064 17.6454 5.17431 17.8166C5.57798 17.9879 6.03058 18.0735 6.53211 18.0735ZM18.237 19.9267C17.5764 19.9267 16.9709 19.8105 16.4204 19.5781C15.8822 19.3457 15.4235 19.0154 15.0443 18.5873C14.6651 18.1469 14.3715 17.6209 14.1636 17.0093C13.9556 16.3854 13.8516 15.6943 13.8516 14.9359C13.8516 14.1775 13.9556 13.4925 14.1636 12.8809C14.3715 12.257 14.6651 11.731 15.0443 11.3029C15.4235 10.8625 15.8822 10.5261 16.4204 10.2937C16.9709 10.0613 17.5764 9.94508 18.237 9.94508C18.8975 9.94508 19.4969 10.0613 20.0351 10.2937C20.5856 10.5261 21.0504 10.8625 21.4296 11.3029C21.8088 11.731 22.1024 12.257 22.3103 12.8809C22.5183 13.4925 22.6223 14.1775 22.6223 14.9359C22.6223 15.6943 22.5183 16.3854 22.3103 17.0093C22.1024 17.6209 21.8088 18.1469 21.4296 18.5873C21.0504 19.0154 20.5856 19.3457 20.0351 19.5781C19.4969 19.8105 18.8975 19.9267 18.237 19.9267ZM18.237 18.2754C18.922 18.2754 19.4724 18.0674 19.8883 17.6515C20.3042 17.2234 20.5122 16.5873 20.5122 15.7432V14.1286C20.5122 13.2845 20.3042 12.6546 19.8883 12.2387C19.4724 11.8105 18.922 11.5965 18.237 11.5965C17.5519 11.5965 17.0015 11.8105 16.5856 12.2387C16.1697 12.6546 15.9617 13.2845 15.9617 14.1286V15.7432C15.9617 16.5873 16.1697 17.2234 16.5856 17.6515C17.0015 18.0674 17.5519 18.2754 18.237 18.2754ZM28.5939 19.9267C27.9333 19.9267 27.3278 19.8105 26.7774 19.5781C26.2392 19.3457 25.7804 19.0154 25.4012 18.5873C25.022 18.1469 24.7284 17.6209 24.5205 17.0093C24.3125 16.3854 24.2086 15.6943 24.2086 14.9359C24.2086 14.1775 24.3125 13.4925 24.5205 12.8809C24.7284 12.257 25.022 11.731 25.4012 11.3029C25.7804 10.8625 26.2392 10.5261 26.7774 10.2937C27.3278 10.0613 27.9333 9.94508 28.5939 9.94508C29.2544 9.94508 29.8538 10.0613 30.3921 10.2937C30.9425 10.5261 31.4073 10.8625 31.7866 11.3029C32.1658 11.731 32.4593 12.257 32.6673 12.8809C32.8752 13.4925 32.9792 14.1775 32.9792 14.9359C32.9792 15.6943 32.8752 16.3854 32.6673 17.0093C32.4593 17.6209 32.1658 18.1469 31.7866 18.5873C31.4073 19.0154 30.9425 19.3457 30.3921 19.5781C29.8538 19.8105 29.2544 19.9267 28.5939 19.9267ZM28.5939 18.2754C29.2789 18.2754 29.8294 18.0674 30.2453 17.6515C30.6612 17.2234 30.8691 16.5873 30.8691 15.7432V14.1286C30.8691 13.2845 30.6612 12.6546 30.2453 12.2387C29.8294 11.8105 29.2789 11.5965 28.5939 11.5965C27.9089 11.5965 27.3584 11.8105 26.9425 12.2387C26.5266 12.6546 26.3187 13.2845 26.3187 14.1286V15.7432C26.3187 16.5873 26.5266 17.2234 26.9425 17.6515C27.3584 18.0674 27.9089 18.2754 28.5939 18.2754ZM37.7962 19.7065C37.0989 19.7065 36.5729 19.5292 36.2182 19.1744C35.8634 18.8075 35.6861 18.2937 35.6861 17.6331V11.7983H34.1998V10.1653H35.0072C35.3374 10.1653 35.5637 10.0919 35.6861 9.94508C35.8206 9.79829 35.8879 9.55975 35.8879 9.22948V7.55975H37.6861V10.1653H39.6861V11.7983H37.6861V18.0735H39.5393V19.7065H37.7962ZM44.883 19.9267C43.9778 19.9267 43.2194 19.7677 42.6078 19.4497C41.9962 19.1316 41.4641 18.6913 41.0115 18.1286L42.2959 16.9542C42.6506 17.3824 43.042 17.7188 43.4702 17.9634C43.9105 18.1958 44.4182 18.312 44.9931 18.312C45.5803 18.312 46.0145 18.202 46.2959 17.9818C46.5894 17.7494 46.7362 17.4313 46.7362 17.0276C46.7362 16.7218 46.6323 16.465 46.4243 16.257C46.2286 16.0368 45.88 15.8961 45.3784 15.835L44.4977 15.7249C43.5191 15.6026 42.7485 15.3212 42.1858 14.8809C41.6353 14.4283 41.3601 13.7616 41.3601 12.8809C41.3601 12.416 41.4457 12.0062 41.617 11.6515C41.7882 11.2845 42.0268 10.9787 42.3326 10.7341C42.6506 10.4772 43.0237 10.2815 43.4518 10.1469C43.8922 10.0124 44.3754 9.94508 44.9014 9.94508C45.7576 9.94508 46.4549 10.0796 46.9931 10.3487C47.5436 10.6179 48.0329 10.9909 48.461 11.468L47.2316 12.6423C46.987 12.3487 46.6628 12.098 46.2592 11.89C45.8677 11.6698 45.4151 11.5598 44.9014 11.5598C44.3509 11.5598 43.9411 11.6698 43.672 11.89C43.4151 12.1102 43.2867 12.3977 43.2867 12.7524C43.2867 13.1194 43.4029 13.3946 43.6353 13.5781C43.8677 13.7616 44.2408 13.8961 44.7546 13.9818L45.6353 14.0919C46.6873 14.2509 47.4518 14.5628 47.9289 15.0276C48.4182 15.4802 48.6628 16.0919 48.6628 16.8625C48.6628 17.3273 48.5711 17.7494 48.3876 18.1286C48.2164 18.4955 47.9656 18.8136 47.6353 19.0827C47.305 19.3518 46.9075 19.5598 46.4427 19.7065C45.9778 19.8533 45.4579 19.9267 44.883 19.9267Z" fill="black"/>
<path d="M55.9956 22.4955L56.251 16.6142L56.2319 17.0537L56.251 14.7813L56.2274 11.7782L56.5 12L56.251 12.3217L55.9956 6.44043H58.9127L58.6573 12.3217L63.443 9.13021L64.9083 11.7782L59.8269 14.468L64.9083 17.1577L63.443 19.8057L58.6573 16.6142L58.9127 22.4955H55.9956Z" fill="black"/>
</svg>
