<svg width="95" height="25" viewBox="0 0 95 25" fill="none" xmlns="http://www.w3.org/2000/svg">
<path d="M22.5413 19.9267C21.6361 19.9267 20.8777 19.7677 20.2661 19.4497C19.6544 19.1316 19.1223 18.6913 18.6697 18.1286L19.9541 16.9542C20.3089 17.3824 20.7003 17.7188 21.1285 17.9634C21.5688 18.1958 22.0765 18.312 22.6514 18.312C23.2385 18.312 23.6728 18.202 23.9541 17.9818C24.2477 17.7494 24.3945 17.4313 24.3945 17.0276C24.3945 16.7218 24.2905 16.465 24.0826 16.257C23.8869 16.0368 23.5382 15.8961 23.0367 15.835L22.156 15.7249C21.1774 15.6026 20.4067 15.3212 19.844 14.8809C19.2936 14.4283 19.0184 13.7616 19.0184 12.8809C19.0184 12.416 19.104 12.0062 19.2752 11.6515C19.4465 11.2845 19.685 10.9787 19.9908 10.7341C20.3089 10.4772 20.682 10.2815 21.1101 10.1469C21.5505 10.0124 22.0337 9.94508 22.5596 9.94508C23.4159 9.94508 24.1132 10.0796 24.6514 10.3487C25.2018 10.6179 25.6911 10.9909 26.1193 11.468L24.8899 12.6423C24.6453 12.3487 24.3211 12.098 23.9174 11.89C23.526 11.6698 23.0734 11.5598 22.5596 11.5598C22.0092 11.5598 21.5994 11.6698 21.3303 11.89C21.0734 12.1102 20.945 12.3977 20.945 12.7524C20.945 13.1194 21.0612 13.3946 21.2936 13.5781C21.526 13.7616 21.8991 13.8961 22.4129 13.9818L23.2936 14.0919C24.3456 14.2509 25.1101 14.5628 25.5872 15.0276C26.0765 15.4802 26.3211 16.0919 26.3211 16.8625C26.3211 17.3273 26.2294 17.7494 26.0459 18.1286C25.8746 18.4955 25.6239 18.8136 25.2936 19.0827C24.9633 19.3518 24.5658 19.5598 24.1009 19.7065C23.6361 19.8533 23.1162 19.9267 22.5413 19.9267ZM32.3237 19.9267C31.6387 19.9267 31.0271 19.8105 30.4888 19.5781C29.9506 19.3457 29.4919 19.0154 29.1127 18.5873C28.7335 18.1469 28.4399 17.6209 28.2319 17.0093C28.0362 16.3854 27.9384 15.6943 27.9384 14.9359C27.9384 14.1775 28.0362 13.4925 28.2319 12.8809C28.4399 12.257 28.7335 11.731 29.1127 11.3029C29.4919 10.8625 29.9506 10.5261 30.4888 10.2937C31.0271 10.0613 31.6387 9.94508 32.3237 9.94508C33.0209 9.94508 33.6326 10.0674 34.1586 10.312C34.6968 10.5567 35.1433 10.8992 35.498 11.3396C35.8527 11.7677 36.1157 12.2692 36.287 12.8442C36.4705 13.4191 36.5622 14.0368 36.5622 14.6974V15.4497H30.0118V15.7616C30.0118 16.4955 30.2258 17.101 30.654 17.5781C31.0943 18.0429 31.7182 18.2754 32.5255 18.2754C33.1127 18.2754 33.6081 18.1469 34.0118 17.89C34.4154 17.6331 34.7579 17.2845 35.0393 16.8442L36.2136 18.0001C35.8589 18.5873 35.3451 19.0582 34.6723 19.413C33.9995 19.7555 33.2167 19.9267 32.3237 19.9267ZM32.3237 11.5047C31.9812 11.5047 31.6631 11.5659 31.3696 11.6882C31.0882 11.8105 30.8436 11.9818 30.6356 12.202C30.4399 12.4221 30.287 12.6851 30.1769 12.9909C30.0668 13.2968 30.0118 13.6331 30.0118 14.0001V14.1286H34.4521V13.9451C34.4521 13.2111 34.2625 12.624 33.8833 12.1836C33.5041 11.731 32.9842 11.5047 32.3237 11.5047ZM38.7762 19.7065V10.1653H40.7762V11.7432H40.868C41.0759 11.2295 41.3879 10.8013 41.8038 10.4588C42.2319 10.1163 42.8129 9.94508 43.5469 9.94508C44.5255 9.94508 45.2839 10.2692 45.8221 10.9176C46.3726 11.5536 46.6478 12.465 46.6478 13.6515V19.7065H44.6478V13.9084C44.6478 12.416 44.0484 11.6698 42.8496 11.6698C42.5928 11.6698 42.3359 11.7065 42.079 11.7799C41.8343 11.8411 41.6142 11.939 41.4184 12.0735C41.2227 12.2081 41.0637 12.3793 40.9414 12.5873C40.8313 12.7952 40.7762 13.0399 40.7762 13.3212V19.7065H38.7762ZM52.4474 19.9267C51.5422 19.9267 50.7838 19.7677 50.1722 19.4497C49.5606 19.1316 49.0284 18.6913 48.5758 18.1286L49.8602 16.9542C50.215 17.3824 50.6064 17.7188 51.0346 17.9634C51.4749 18.1958 51.9826 18.312 52.5575 18.312C53.1446 18.312 53.5789 18.202 53.8602 17.9818C54.1538 17.7494 54.3006 17.4313 54.3006 17.0276C54.3006 16.7218 54.1966 16.465 53.9887 16.257C53.793 16.0368 53.4443 15.8961 52.9428 15.835L52.0621 15.7249C51.0835 15.6026 50.3128 15.3212 49.7502 14.8809C49.1997 14.4283 48.9245 13.7616 48.9245 12.8809C48.9245 12.416 49.0101 12.0062 49.1813 11.6515C49.3526 11.2845 49.5911 10.9787 49.8969 10.7341C50.215 10.4772 50.5881 10.2815 51.0162 10.1469C51.4566 10.0124 51.9398 9.94508 52.4658 9.94508C53.322 9.94508 54.0193 10.0796 54.5575 10.3487C55.108 10.6179 55.5972 10.9909 56.0254 11.468L54.796 12.6423C54.5514 12.3487 54.2272 12.098 53.8235 11.89C53.4321 11.6698 52.9795 11.5598 52.4658 11.5598C51.9153 11.5598 51.5055 11.6698 51.2364 11.89C50.9795 12.1102 50.8511 12.3977 50.8511 12.7524C50.8511 13.1194 50.9673 13.3946 51.1997 13.5781C51.4321 13.7616 51.8052 13.8961 52.319 13.9818L53.1997 14.0919C54.2517 14.2509 55.0162 14.5628 55.4933 15.0276C55.9826 15.4802 56.2272 16.0919 56.2272 16.8625C56.2272 17.3273 56.1355 17.7494 55.952 18.1286C55.7807 18.4955 55.53 18.8136 55.1997 19.0827C54.8694 19.3518 54.4719 19.5598 54.007 19.7065C53.5422 19.8533 53.0223 19.9267 52.4474 19.9267ZM59.4959 8.45884C59.0799 8.45884 58.7741 8.36098 58.5784 8.16526C58.3949 7.96954 58.3032 7.71878 58.3032 7.41297V7.10104C58.3032 6.79523 58.3949 6.54446 58.5784 6.34874C58.7741 6.15303 59.0799 6.05517 59.4959 6.05517C59.9118 6.05517 60.2114 6.15303 60.3949 6.34874C60.5784 6.54446 60.6702 6.79523 60.6702 7.10104V7.41297C60.6702 7.71878 60.5784 7.96954 60.3949 8.16526C60.2114 8.36098 59.9118 8.45884 59.4959 8.45884ZM58.4867 10.1653H60.4867V19.7065H58.4867V10.1653ZM65.3793 19.7065C64.6943 19.7065 64.1805 19.5353 63.838 19.1928C63.5077 18.838 63.3426 18.3487 63.3426 17.7249V6.12856H65.3426V18.0735H66.6637V19.7065H65.3793ZM74.3547 18.1286H74.2813C74.1956 18.361 74.0794 18.5873 73.9326 18.8075C73.7981 19.0276 73.6207 19.2234 73.4005 19.3946C73.1926 19.5536 72.9357 19.6821 72.6299 19.7799C72.3363 19.8778 71.9938 19.9267 71.6024 19.9267C70.6115 19.9267 69.8409 19.6087 69.2904 18.9726C68.7522 18.3365 68.4831 17.4252 68.4831 16.2387V10.1653H70.4831V15.9818C70.4831 17.4619 71.0947 18.202 72.318 18.202C72.5748 18.202 72.8256 18.1714 73.0703 18.1102C73.3149 18.0368 73.529 17.9328 73.7125 17.7983C73.9082 17.6637 74.0611 17.4925 74.1712 17.2845C74.2935 17.0766 74.3547 16.8319 74.3547 16.5506V10.1653H76.3547V19.7065H74.3547V18.1286ZM79.2185 19.7065V10.1653H81.2185V11.7432H81.3102C81.4081 11.4986 81.5243 11.2662 81.6588 11.046C81.8056 10.8258 81.9769 10.6362 82.1726 10.4772C82.3806 10.3059 82.6191 10.1775 82.8882 10.0919C83.1695 9.994 83.4937 9.94508 83.8607 9.94508C84.509 9.94508 85.0839 10.1041 85.5854 10.4221C86.087 10.7402 86.4539 11.2295 86.6864 11.89H86.7414C86.9127 11.3518 87.2429 10.8931 87.7322 10.5139C88.2215 10.1347 88.8515 9.94508 89.6221 9.94508C90.5763 9.94508 91.3163 10.2692 91.8423 10.9176C92.3683 11.5536 92.6313 12.465 92.6313 13.6515V19.7065H90.6313V13.89C90.6313 13.1561 90.4906 12.6056 90.2093 12.2387C89.928 11.8594 89.4815 11.6698 88.8699 11.6698C88.613 11.6698 88.3683 11.7065 88.1359 11.7799C87.9035 11.8411 87.6955 11.939 87.5121 12.0735C87.3408 12.2081 87.2001 12.3793 87.09 12.5873C86.9799 12.7952 86.9249 13.0338 86.9249 13.3029V19.7065H84.9249V13.89C84.9249 12.4099 84.3439 11.6698 83.1818 11.6698C82.9371 11.6698 82.6925 11.7065 82.4478 11.7799C82.2154 11.8411 82.0075 11.939 81.824 12.0735C81.6405 12.2081 81.4937 12.3793 81.3836 12.5873C81.2735 12.7952 81.2185 13.0338 81.2185 13.3029V19.7065H79.2185Z" fill="black"/>
<path d="M-0.00439453 22.4955L0.251021 16.6142L0.231913 17.0537L0.251034 14.7813L0.227416 11.7782L0.5 12L0.251021 12.3217L-0.00439453 6.44043H2.91273L2.65731 12.3217L7.44301 9.13021L8.9083 11.7782L3.82685 14.468L8.9083 17.1577L7.44301 19.8057L2.65731 16.6142L2.91273 22.4955H-0.00439453Z" fill="black"/>
</svg>
