<svg width="76" height="25" viewBox="0 0 76 25" fill="none" xmlns="http://www.w3.org/2000/svg">
<path d="M24.4679 19.9267C22.7921 19.9267 21.4771 19.364 20.5229 18.2387C19.5688 17.101 19.0918 15.4558 19.0918 13.3029C19.0918 12.2264 19.2141 11.2784 19.4587 10.4588C19.7034 9.63926 20.0581 8.94813 20.5229 8.38544C20.9878 7.82275 21.5505 7.40073 22.211 7.11939C22.8838 6.82581 23.6361 6.67902 24.4679 6.67902C25.5811 6.67902 26.5107 6.92367 27.2569 7.41297C28.0153 7.90226 28.6086 8.62397 29.0367 9.5781L27.2936 10.5322C27.0734 9.92061 26.7309 9.43743 26.2661 9.08269C25.8135 8.71572 25.2141 8.53223 24.4679 8.53223C23.4771 8.53223 22.7003 8.86862 22.1376 9.54141C21.5749 10.2142 21.2936 11.1439 21.2936 12.3304V14.2754C21.2936 15.4619 21.5749 16.3916 22.1376 17.0643C22.7003 17.7371 23.4771 18.0735 24.4679 18.0735C25.2385 18.0735 25.8624 17.8778 26.3395 17.4864C26.8288 17.0827 27.1896 16.5689 27.422 15.9451L29.0918 16.9542C28.6636 17.8839 28.0642 18.6117 27.2936 19.1377C26.5229 19.6637 25.5811 19.9267 24.4679 19.9267ZM34.886 19.9267C34.201 19.9267 33.5894 19.8105 33.0512 19.5781C32.513 19.3457 32.0542 19.0154 31.675 18.5873C31.2958 18.1469 31.0023 17.6209 30.7943 17.0093C30.5986 16.3854 30.5007 15.6943 30.5007 14.9359C30.5007 14.1775 30.5986 13.4925 30.7943 12.8809C31.0023 12.257 31.2958 11.731 31.675 11.3029C32.0542 10.8625 32.513 10.5261 33.0512 10.2937C33.5894 10.0613 34.201 9.94508 34.886 9.94508C35.5833 9.94508 36.1949 10.0674 36.7209 10.312C37.2591 10.5567 37.7056 10.8992 38.0604 11.3396C38.4151 11.7677 38.6781 12.2692 38.8494 12.8442C39.0328 13.4191 39.1246 14.0368 39.1246 14.6974V15.4497H32.5741V15.7616C32.5741 16.4955 32.7882 17.101 33.2163 17.5781C33.6567 18.0429 34.2805 18.2754 35.0879 18.2754C35.675 18.2754 36.1705 18.1469 36.5741 17.89C36.9778 17.6331 37.3203 17.2845 37.6016 16.8442L38.776 18.0001C38.4212 18.5873 37.9075 19.0582 37.2347 19.413C36.5619 19.7555 35.779 19.9267 34.886 19.9267ZM34.886 11.5047C34.5435 11.5047 34.2255 11.5659 33.9319 11.6882C33.6506 11.8105 33.4059 11.9818 33.198 12.202C33.0023 12.4221 32.8494 12.6851 32.7393 12.9909C32.6292 13.2968 32.5741 13.6331 32.5741 14.0001V14.1286H37.0145V13.9451C37.0145 13.2111 36.8249 12.624 36.4457 12.1836C36.0665 11.731 35.5466 11.5047 34.886 11.5047ZM40.4784 19.7065V18.0919L45.5976 11.7983H40.6435V10.1653H47.9646V11.7065L42.7719 18.0735H48.093V19.7065H40.4784ZM51.1996 8.45884C50.7837 8.45884 50.4778 8.36098 50.2821 8.16526C50.0986 7.96954 50.0069 7.71878 50.0069 7.41297V7.10104C50.0069 6.79523 50.0986 6.54446 50.2821 6.34874C50.4778 6.15303 50.7837 6.05517 51.1996 6.05517C51.6155 6.05517 51.9151 6.15303 52.0986 6.34874C52.2821 6.54446 52.3739 6.79523 52.3739 7.10104V7.41297C52.3739 7.71878 52.2821 7.96954 52.0986 8.16526C51.9151 8.36098 51.6155 8.45884 51.1996 8.45884ZM50.1904 10.1653H52.1904V19.7065H50.1904V10.1653ZM58.7894 19.9267C58.1289 19.9267 57.5234 19.8105 56.9729 19.5781C56.4347 19.3457 55.976 19.0154 55.5968 18.5873C55.2176 18.1469 54.924 17.6209 54.716 17.0093C54.5081 16.3854 54.4041 15.6943 54.4041 14.9359C54.4041 14.1775 54.5081 13.4925 54.716 12.8809C54.924 12.257 55.2176 11.731 55.5968 11.3029C55.976 10.8625 56.4347 10.5261 56.9729 10.2937C57.5234 10.0613 58.1289 9.94508 58.7894 9.94508C59.45 9.94508 60.0494 10.0613 60.5876 10.2937C61.1381 10.5261 61.6029 10.8625 61.9821 11.3029C62.3613 11.731 62.6549 12.257 62.8628 12.8809C63.0708 13.4925 63.1748 14.1775 63.1748 14.9359C63.1748 15.6943 63.0708 16.3854 62.8628 17.0093C62.6549 17.6209 62.3613 18.1469 61.9821 18.5873C61.6029 19.0154 61.1381 19.3457 60.5876 19.5781C60.0494 19.8105 59.45 19.9267 58.7894 19.9267ZM58.7894 18.2754C59.4744 18.2754 60.0249 18.0674 60.4408 17.6515C60.8567 17.2234 61.0647 16.5873 61.0647 15.7432V14.1286C61.0647 13.2845 60.8567 12.6546 60.4408 12.2387C60.0249 11.8105 59.4744 11.5965 58.7894 11.5965C58.1044 11.5965 57.554 11.8105 57.1381 12.2387C56.7222 12.6546 56.5142 13.2845 56.5142 14.1286V15.7432C56.5142 16.5873 56.7222 17.2234 57.1381 17.6515C57.554 18.0674 58.1044 18.2754 58.7894 18.2754ZM65.4032 19.7065V10.1653H67.4033V11.7432H67.495C67.7029 11.2295 68.0149 10.8013 68.4308 10.4588C68.8589 10.1163 69.4399 9.94508 70.1739 9.94508C71.1525 9.94508 71.9109 10.2692 72.4491 10.9176C72.9996 11.5536 73.2748 12.465 73.2748 13.6515V19.7065H71.2748V13.9084C71.2748 12.416 70.6754 11.6698 69.4766 11.6698C69.2198 11.6698 68.9629 11.7065 68.706 11.7799C68.4614 11.8411 68.2412 11.939 68.0455 12.0735C67.8497 12.2081 67.6907 12.3793 67.5684 12.5873C67.4583 12.7952 67.4033 13.0399 67.4033 13.3212V19.7065H65.4032Z" fill="black"/>
<path d="M-0.00439453 22.4955L0.251021 16.6142L0.231913 17.0537L0.251034 14.7813L0.227416 11.7782L0.5 12L0.251021 12.3217L-0.00439453 6.44043H2.91273L2.65731 12.3217L7.44301 9.13021L8.9083 11.7782L3.82685 14.468L8.9083 17.1577L7.44301 19.8057L2.65731 16.6142L2.91273 22.4955H-0.00439453Z" fill="black"/>
</svg>
