<svg width="258" height="22" viewBox="0 0 258 22" fill="none" xmlns="http://www.w3.org/2000/svg">
<path d="M25.6606 3.89908H30.1927C31.0122 3.89908 31.7523 4.03364 32.4129 4.30275C33.0856 4.57186 33.6544 4.97553 34.1193 5.51376C34.5963 6.03975 34.9633 6.70642 35.2202 7.51376C35.4771 8.30887 35.6055 9.23853 35.6055 10.3028C35.6055 11.367 35.4771 12.3028 35.2202 13.1101C34.9633 13.9052 34.5963 14.5719 34.1193 15.1101C33.6544 15.6361 33.0856 16.0336 32.4129 16.3028C31.7523 16.5719 31.0122 16.7064 30.1927 16.7064H25.6606V3.89908ZM30.1927 14.8716C31.1468 14.8716 31.9174 14.5719 32.5046 13.9725C33.0918 13.3731 33.3853 12.4924 33.3853 11.3303V9.27523C33.3853 8.11315 33.0918 7.23241 32.5046 6.63303C31.9174 6.03364 31.1468 5.73394 30.1927 5.73394H27.734V14.8716H30.1927ZM41.782 16.9266C41.097 16.9266 40.4853 16.8104 39.9471 16.578C39.4089 16.3456 38.9502 16.0153 38.571 15.5872C38.1918 15.1468 37.8982 14.6208 37.6902 14.0092C37.4945 13.3853 37.3967 12.6942 37.3967 11.9358C37.3967 11.1774 37.4945 10.4924 37.6902 9.88073C37.8982 9.25688 38.1918 8.73089 38.571 8.30275C38.9502 7.86238 39.4089 7.52599 39.9471 7.29358C40.4853 7.06116 41.097 6.94495 41.782 6.94495C42.4792 6.94495 43.0908 7.06728 43.6168 7.31193C44.1551 7.55657 44.6015 7.89908 44.9563 8.33945C45.311 8.76758 45.574 9.26911 45.7453 9.84404C45.9288 10.419 46.0205 11.0367 46.0205 11.6972V12.4495H39.4701V12.7615C39.4701 13.4954 39.6841 14.1009 40.1123 14.578C40.5526 15.0428 41.1765 15.2752 41.9838 15.2752C42.571 15.2752 43.0664 15.1468 43.4701 14.8899C43.8737 14.633 44.2162 14.2844 44.4976 13.844L45.6719 15C45.3171 15.5872 44.8034 16.0581 44.1306 16.4128C43.4578 16.7554 42.6749 16.9266 41.782 16.9266ZM41.782 8.50459C41.4395 8.50459 41.1214 8.56575 40.8278 8.68807C40.5465 8.8104 40.3019 8.98165 40.0939 9.20183C39.8982 9.42202 39.7453 9.68501 39.6352 9.99082C39.5251 10.2966 39.4701 10.633 39.4701 11V11.1284H43.9104V10.945C43.9104 10.211 43.7208 9.62385 43.3416 9.18348C42.9624 8.73089 42.4425 8.50459 41.782 8.50459ZM51.2621 16.9266C50.3569 16.9266 49.5984 16.7676 48.9868 16.4495C48.3752 16.1315 47.8431 15.6911 47.3905 15.1284L48.6749 13.9541C49.0296 14.3823 49.4211 14.7187 49.8492 14.9633C50.2896 15.1957 50.7972 15.3119 51.3721 15.3119C51.9593 15.3119 52.3936 15.2018 52.6749 14.9817C52.9685 14.7492 53.1153 14.4312 53.1153 14.0275C53.1153 13.7217 53.0113 13.4648 52.8033 13.2569C52.6076 13.0367 52.259 12.896 51.7575 12.8349L50.8767 12.7248C49.8981 12.6024 49.1275 12.3211 48.5648 11.8807C48.0143 11.4281 47.7391 10.7615 47.7391 9.88073C47.7391 9.4159 47.8247 9.00611 47.996 8.65138C48.1673 8.2844 48.4058 7.97859 48.7116 7.73394C49.0296 7.47706 49.4027 7.28134 49.8309 7.14679C50.2712 7.01223 50.7544 6.94495 51.2804 6.94495C52.1367 6.94495 52.8339 7.07951 53.3721 7.34862C53.9226 7.61774 54.4119 7.99082 54.84 8.46789L53.6107 9.6422C53.366 9.34862 53.0419 9.09786 52.6382 8.88991C52.2468 8.66972 51.7942 8.55963 51.2804 8.55963C50.7299 8.55963 50.3202 8.66972 50.051 8.88991C49.7942 9.11009 49.6657 9.39755 49.6657 9.75229C49.6657 10.1193 49.7819 10.3945 50.0143 10.578C50.2468 10.7615 50.6199 10.896 51.1336 10.9817L52.0143 11.0917C53.0663 11.2508 53.8309 11.5627 54.3079 12.0275C54.7972 12.4801 55.0419 13.0917 55.0419 13.8624C55.0419 14.3272 54.9501 14.7492 54.7666 15.1284C54.5954 15.4954 54.3446 15.8135 54.0143 16.0826C53.6841 16.3517 53.2865 16.5596 52.8217 16.7064C52.3569 16.8532 51.837 16.9266 51.2621 16.9266ZM58.3105 5.45871C57.8946 5.45871 57.5888 5.36086 57.3931 5.16514C57.2096 4.96942 57.1178 4.71865 57.1178 4.41284V4.10092C57.1178 3.79511 57.2096 3.54434 57.3931 3.34862C57.5888 3.1529 57.8946 3.05504 58.3105 3.05504C58.7264 3.05504 59.0261 3.1529 59.2096 3.34862C59.3931 3.54434 59.4848 3.79511 59.4848 4.10092V4.41284C59.4848 4.71865 59.3931 4.96942 59.2096 5.16514C59.0261 5.36086 58.7264 5.45871 58.3105 5.45871ZM57.3013 7.16514H59.3013V16.7064H57.3013V7.16514ZM70.5242 17.6055C70.5242 18.5963 70.145 19.3425 69.3866 19.844C68.6282 20.3456 67.3927 20.5963 65.6802 20.5963C64.8973 20.5963 64.2307 20.5413 63.6802 20.4312C63.142 20.3333 62.6955 20.1865 62.3407 19.9908C61.9982 19.7951 61.7475 19.5566 61.5885 19.2752C61.4294 18.9939 61.3499 18.6697 61.3499 18.3028C61.3499 17.7768 61.4906 17.367 61.7719 17.0734C62.0655 16.7798 62.4692 16.578 62.983 16.4679V16.2661C62.2612 16.0336 61.9004 15.5443 61.9004 14.7982C61.9004 14.3089 62.0655 13.9358 62.3958 13.6789C62.7261 13.4098 63.1236 13.2202 63.5885 13.1101V13.0367C63.0258 12.7676 62.5915 12.3945 62.2857 11.9174C61.9921 11.4281 61.8453 10.8593 61.8453 10.211C61.8453 9.23241 62.1695 8.44342 62.8178 7.84404C63.4784 7.24465 64.4203 6.94495 65.6435 6.94495C66.3163 6.94495 66.8912 7.04281 67.3683 7.23853V6.98165C67.3683 6.55352 67.4661 6.22324 67.6619 5.99082C67.8698 5.74618 68.1878 5.62385 68.616 5.62385H70.0839V7.23853H68.1389V7.62385C68.567 7.9052 68.8973 8.27217 69.1297 8.72477C69.3622 9.16514 69.4784 9.66055 69.4784 10.211C69.4784 11.1774 69.1481 11.9602 68.4875 12.5596C67.827 13.1468 66.8851 13.4404 65.6619 13.4404C65.197 13.4404 64.7811 13.3914 64.4141 13.2936C64.1695 13.3792 63.9554 13.5015 63.7719 13.6605C63.5885 13.8073 63.4967 14.0031 63.4967 14.2477C63.4967 14.5046 63.6129 14.6881 63.8453 14.7982C64.0778 14.9083 64.408 14.9633 64.8362 14.9633H67.1848C68.3591 14.9633 69.2093 15.2018 69.7352 15.6789C70.2612 16.1437 70.5242 16.7859 70.5242 17.6055ZM68.6527 17.8257C68.6527 17.4954 68.5242 17.2324 68.2674 17.0367C68.0227 16.841 67.5701 16.7431 66.9096 16.7431H63.6802C63.2398 17 63.0196 17.367 63.0196 17.844C63.0196 18.2355 63.1726 18.5474 63.4784 18.7798C63.7964 19.0245 64.3285 19.1468 65.0747 19.1468H66.3224C67.8759 19.1468 68.6527 18.7064 68.6527 17.8257ZM65.6619 11.9908C66.249 11.9908 66.7016 11.8624 67.0196 11.6055C67.3499 11.3364 67.5151 10.9266 67.5151 10.3761V10.0092C67.5151 9.45871 67.3499 9.05504 67.0196 8.79816C66.7016 8.52905 66.249 8.39449 65.6619 8.39449C65.0747 8.39449 64.616 8.52905 64.2857 8.79816C63.9677 9.05504 63.8086 9.45871 63.8086 10.0092V10.3761C63.8086 10.9266 63.9677 11.3364 64.2857 11.6055C64.616 11.8624 65.0747 11.9908 65.6619 11.9908ZM72.0125 16.7064V7.16514H74.0125V8.74312H74.1042C74.3122 8.22936 74.6241 7.80122 75.04 7.45871C75.4681 7.11621 76.0492 6.94495 76.7831 6.94495C77.7617 6.94495 78.5201 7.26911 79.0584 7.91743C79.6088 8.55352 79.884 9.46483 79.884 10.6514V16.7064H77.884V10.9083C77.884 9.4159 77.2847 8.66972 76.0859 8.66972C75.829 8.66972 75.5721 8.70642 75.3152 8.77982C75.0706 8.84098 74.8504 8.93884 74.6547 9.07339C74.459 9.20795 74.2999 9.3792 74.1776 9.58715C74.0675 9.79511 74.0125 10.0398 74.0125 10.3211V16.7064H72.0125ZM82.8029 16.7064V3.89908H88.3075C89.494 3.89908 90.4115 4.24771 91.0598 4.94495C91.7081 5.6422 92.0323 6.57798 92.0323 7.75229C92.0323 8.9266 91.7081 9.86238 91.0598 10.5596C90.4115 11.2569 89.494 11.6055 88.3075 11.6055H84.8763V16.7064H82.8029ZM84.8763 9.78899H88.1791C88.705 9.78899 89.1148 9.65443 89.4084 9.38532C89.702 9.10397 89.8488 8.70642 89.8488 8.19266V7.31193C89.8488 6.79816 89.702 6.40673 89.4084 6.13761C89.1148 5.85627 88.705 5.71559 88.1791 5.71559H84.8763V9.78899ZM97.5446 16.9266C96.8596 16.9266 96.248 16.8104 95.7097 16.578C95.1715 16.3456 94.7128 16.0153 94.3336 15.5872C93.9544 15.1468 93.6608 14.6208 93.4528 14.0092C93.2571 13.3853 93.1593 12.6942 93.1593 11.9358C93.1593 11.1774 93.2571 10.4924 93.4528 9.88073C93.6608 9.25688 93.9544 8.73089 94.3336 8.30275C94.7128 7.86238 95.1715 7.52599 95.7097 7.29358C96.248 7.06116 96.8596 6.94495 97.5446 6.94495C98.2418 6.94495 98.8535 7.06728 99.3795 7.31193C99.9177 7.55657 100.364 7.89908 100.719 8.33945C101.074 8.76758 101.337 9.26911 101.508 9.84404C101.691 10.419 101.783 11.0367 101.783 11.6972V12.4495H95.2327V12.7615C95.2327 13.4954 95.4467 14.1009 95.8749 14.578C96.3152 15.0428 96.9391 15.2752 97.7464 15.2752C98.3336 15.2752 98.829 15.1468 99.2327 14.8899C99.6363 14.633 99.9788 14.2844 100.26 13.844L101.434 15C101.08 15.5872 100.566 16.0581 99.8932 16.4128C99.2204 16.7554 98.4376 16.9266 97.5446 16.9266ZM97.5446 8.50459C97.2021 8.50459 96.884 8.56575 96.5905 8.68807C96.3091 8.8104 96.0645 8.98165 95.8565 9.20183C95.6608 9.42202 95.5079 9.68501 95.3978 9.99082C95.2877 10.2966 95.2327 10.633 95.2327 11V11.1284H99.673V10.945C99.673 10.211 99.4834 9.62385 99.1042 9.18348C98.725 8.73089 98.2051 8.50459 97.5446 8.50459ZM107.74 16.9266C107.055 16.9266 106.444 16.8104 105.905 16.578C105.367 16.3456 104.908 16.0153 104.529 15.5872C104.15 15.1468 103.856 14.6208 103.649 14.0092C103.453 13.3853 103.355 12.6942 103.355 11.9358C103.355 11.1774 103.453 10.4924 103.649 9.88073C103.856 9.25688 104.15 8.73089 104.529 8.30275C104.908 7.86238 105.367 7.52599 105.905 7.29358C106.444 7.06116 107.055 6.94495 107.74 6.94495C108.438 6.94495 109.049 7.06728 109.575 7.31193C110.113 7.55657 110.56 7.89908 110.915 8.33945C111.269 8.76758 111.532 9.26911 111.704 9.84404C111.887 10.419 111.979 11.0367 111.979 11.6972V12.4495H105.428V12.7615C105.428 13.4954 105.642 14.1009 106.071 14.578C106.511 15.0428 107.135 15.2752 107.942 15.2752C108.529 15.2752 109.025 15.1468 109.428 14.8899C109.832 14.633 110.175 14.2844 110.456 13.844L111.63 15C111.275 15.5872 110.762 16.0581 110.089 16.4128C109.416 16.7554 108.633 16.9266 107.74 16.9266ZM107.74 8.50459C107.398 8.50459 107.08 8.56575 106.786 8.68807C106.505 8.8104 106.26 8.98165 106.052 9.20183C105.856 9.42202 105.704 9.68501 105.593 9.99082C105.483 10.2966 105.428 10.633 105.428 11V11.1284H109.869V10.945C109.869 10.211 109.679 9.62385 109.3 9.18348C108.921 8.73089 108.401 8.50459 107.74 8.50459ZM114.193 16.7064V7.16514H116.193V9H116.285C116.419 8.5107 116.7 8.08257 117.129 7.7156C117.557 7.34862 118.15 7.16514 118.908 7.16514H119.441V9.09174H118.652C117.856 9.09174 117.245 9.22018 116.817 9.47706C116.401 9.73394 116.193 10.1131 116.193 10.6147V16.7064H114.193Z" fill="black"/>
<path d="M5.99557 19.4954L6.25098 13.6141L1.46528 16.8056L0 14.1577L5.08144 11.4679L0 8.77811L1.46528 6.13015L6.25098 9.32164L5.99557 3.44037H8.91269L8.65727 9.32164L13.443 6.13015L14.9083 8.77811L9.82681 11.4679L14.9083 14.1577L13.443 16.8056L8.65727 13.6141L8.91269 19.4954H5.99557Z" fill="black"/>
</svg>
